<?xml version="1.0" encoding="utf-8"?>
<!-- Generator: Adobe Illustrator 24.0.1, SVG Export Plug-In . SVG Version: 6.00 Build 0)  -->
<svg version="1.1"
	 id="svg2985" inkscape:export-filename="/home/kk/Documents/svg/wastewater-profile.png" inkscape:export-xdpi="90" inkscape:export-ydpi="90" inkscape:version="0.48.5 r10040" sodipodi:docname="wizard-reach-manhole.svg" xmlns:cc="http://creativecommons.org/ns#" xmlns:dc="http://purl.org/dc/elements/1.1/" xmlns:inkscape="http://www.inkscape.org/namespaces/inkscape" xmlns:rdf="http://www.w3.org/1999/02/22-rdf-syntax-ns#" xmlns:sodipodi="http://sodipodi.sourceforge.net/DTD/sodipodi-0.dtd" xmlns:svg="http://www.w3.org/2000/svg"
	 xmlns="http://www.w3.org/2000/svg" xmlns:xlink="http://www.w3.org/1999/xlink" x="0px" y="0px" viewBox="0 0 48 48"
	 style="enable-background:new 0 0 48 48;" xml:space="preserve">
<style type="text/css">
	.st0{fill:#264AA1;}
	.st1{fill:#FFFFFF;}
	.st2{fill:#004489;}
	.st3{fill:#DA2520;}
	.st4{fill:#231F20;}
</style>
<sodipodi:namedview  bordercolor="#666666" borderopacity="1.0" id="base" inkscape:current-layer="layer1" inkscape:cx="14.355561" inkscape:cy="14.075651" inkscape:document-units="px" inkscape:grid-bbox="true" inkscape:pageopacity="0.0" inkscape:pageshadow="2" inkscape:window-height="1014" inkscape:window-maximized="1" inkscape:window-width="1920" inkscape:window-x="0" inkscape:window-y="27" inkscape:zoom="11.313709" pagecolor="#ffffff" showgrid="true">
	</sodipodi:namedview>
<path id="path5095" inkscape:connector-curvature="0" class="st0" d="M37,15.9c-3.7,11.6-8.5,10.2-8.4,20.5c0,4.6,3.5,9.4,7.5,9.5
	c5.6,0.2,9.4-5.7,9.4-9.2C45.6,29,40.8,27.6,37,15.9z"/>
<path id="path3134" inkscape:connector-curvature="0" class="st1" d="M30.1,38.2c-1.3-5,1.2-7.7,3.5-10.3c0.6,4.2-4.4,6.8,0.4,13.4
	S31,41.7,30.1,38.2z"/>
<path class="st2" d="M0,10.5v11.1c11.9,0,21.6-9.7,21.6-21.6H10.5C10.5,5.8,5.8,10.5,0,10.5z"/>
<path class="st3" d="M10.5,0H0v10.5C5.8,10.5,10.5,5.8,10.5,0z"/>
<polygon class="st4" points="16.4,18.2 20.7,22.5 18.9,24.4 26.8,25.1 26.2,17.1 24.3,19 20,14.7 "/>
</svg>
