<?xml version="1.0" encoding="utf-8"?>
<!-- Generator: Adobe Illustrator 24.0.1, SVG Export Plug-In . SVG Version: 6.00 Build 0)  -->
<svg version="1.1"
	 id="svg2985" inkscape:export-filename="/home/kk/Documents/svg/wastewater-profile.png" inkscape:export-xdpi="90" inkscape:export-ydpi="90" inkscape:version="0.48.5 r10040" sodipodi:docname="wizard-reach-manhole.svg" xmlns:cc="http://creativecommons.org/ns#" xmlns:dc="http://purl.org/dc/elements/1.1/" xmlns:inkscape="http://www.inkscape.org/namespaces/inkscape" xmlns:rdf="http://www.w3.org/1999/02/22-rdf-syntax-ns#" xmlns:sodipodi="http://sodipodi.sourceforge.net/DTD/sodipodi-0.dtd" xmlns:svg="http://www.w3.org/2000/svg"
	 xmlns="http://www.w3.org/2000/svg" xmlns:xlink="http://www.w3.org/1999/xlink" x="0px" y="0px" viewBox="0 0 48 48"
	 style="enable-background:new 0 0 48 48;" xml:space="preserve">
<style type="text/css">
	.st0{fill:none;}
	.st1{fill:#264AA1;}
	.st2{fill:#FFFFFF;}
	.st3{fill:#004489;}
	.st4{fill:#DA2520;}
	.st5{fill:#231F20;}
</style>
<sodipodi:namedview  bordercolor="#666666" borderopacity="1.0" id="base" inkscape:current-layer="layer1" inkscape:cx="14.355561" inkscape:cy="14.075651" inkscape:document-units="px" inkscape:grid-bbox="true" inkscape:pageopacity="0.0" inkscape:pageshadow="2" inkscape:window-height="1014" inkscape:window-maximized="1" inkscape:window-width="1920" inkscape:window-x="0" inkscape:window-y="27" inkscape:zoom="11.313709" pagecolor="#ffffff" showgrid="true">
	</sodipodi:namedview>
<g>
	<rect x="14" y="11.2" transform="matrix(0.7071 -0.7071 0.7071 0.7071 -11.654 28.5528)" class="st0" width="29.3" height="34.3"/>
</g>
<path id="path5095" inkscape:connector-curvature="0" class="st1" d="M7.8,0.5c-3,9.6-7,8.4-6.9,17c0,3.8,2.9,7.8,6.2,7.9
	c4.6,0.2,7.7-4.7,7.8-7.6C14.8,11.3,10.9,10.1,7.8,0.5z"/>
<path id="path3134" inkscape:connector-curvature="0" class="st2" d="M2,19c-1.1-4.1,1-6.4,2.9-8.5c0.5,3.5-3.7,5.6,0.3,11.1
	S2.8,21.9,2,19z"/>
<path class="st3" d="M48,35V21.2c-14.8,0-26.8,12-26.8,26.8H35C35,40.8,40.8,35,48,35z"/>
<path class="st4" d="M35,48h13V35C40.8,35,35,40.8,35,48z"/>
<polygon class="st5" points="16.4,18.2 20.7,22.5 18.9,24.4 26.8,25.1 26.2,17.1 24.3,19 20,14.7 "/>
</svg>
