<?xml version="1.0" encoding="utf-8"?>
<!-- Generator: Adobe Illustrator 24.0.1, SVG Export Plug-In . SVG Version: 6.00 Build 0)  -->
<svg version="1.1"
	 id="svg2985" inkscape:export-filename="/home/kk/Documents/svg/wastewater-profile.png" inkscape:export-xdpi="90" inkscape:export-ydpi="90" inkscape:version="0.48.5 r10040" sodipodi:docname="wizard-reach-manhole.svg" xmlns:cc="http://creativecommons.org/ns#" xmlns:dc="http://purl.org/dc/elements/1.1/" xmlns:inkscape="http://www.inkscape.org/namespaces/inkscape" xmlns:rdf="http://www.w3.org/1999/02/22-rdf-syntax-ns#" xmlns:sodipodi="http://sodipodi.sourceforge.net/DTD/sodipodi-0.dtd" xmlns:svg="http://www.w3.org/2000/svg"
	 xmlns="http://www.w3.org/2000/svg" xmlns:xlink="http://www.w3.org/1999/xlink" x="0px" y="0px" viewBox="0 0 48 48"
	 style="enable-background:new 0 0 48 48;" xml:space="preserve">
<style type="text/css">
	.st0{fill:#004489;}
	.st1{fill:none;}
	.st2{fill:#231F20;}
	.st3{fill:#DA2520;}
</style>
<sodipodi:namedview  bordercolor="#666666" borderopacity="1.0" id="base" inkscape:current-layer="layer1" inkscape:cx="14.355561" inkscape:cy="14.075651" inkscape:document-units="px" inkscape:grid-bbox="true" inkscape:pageopacity="0.0" inkscape:pageshadow="2" inkscape:window-height="1014" inkscape:window-maximized="1" inkscape:window-width="1920" inkscape:window-x="0" inkscape:window-y="27" inkscape:zoom="11.313709" pagecolor="#ffffff" showgrid="true">
	</sodipodi:namedview>
<g id="Arrow_26">
	<g>
		<path class="st0" d="M45.1,16.5c-5.1,0-9.9,1.4-14.1,3.7l0.9,11.6c0,0.2,0,0.3-0.2,0.4c-0.1,0.1-0.2,0.2-0.4,0.2c0,0,0,0,0,0
			l-11.4-0.9c-2.2,4-3.4,8.7-3.4,13.6c0,1,0.1,1.9,0.2,2.8c0,0,31.5,0.1,31.4,0V16.7C47,16.6,46.1,16.5,45.1,16.5z"/>
	</g>
	<rect x="4.6" y="2.7" transform="matrix(0.7071 -0.7071 0.7071 0.7071 -8.3804 19.3995)" class="st1" width="29.3" height="34.3"/>
	<polygon class="st2" points="0.9,11.9 13.5,24.5 8,30.1 31.4,31.9 29.5,8.5 24,14.1 11.3,1.5 	"/>
</g>
<path class="st3" d="M45.5,32.8c-7,0-12.8,5.7-12.8,12.8c0,0.9,0.1,1.7,0.3,2.4h15V33.1C47.2,32.9,46.3,32.8,45.5,32.8z"/>
</svg>
